<?xml version="1.0" encoding="iso-8859-1"?>
<!-- Generator: Adobe Illustrator 19.0.0, SVG Export Plug-In . SVG Version: 6.00 Build 0)  -->
<svg version="1.1" id="Layer_1" xmlns="http://www.w3.org/2000/svg" xmlns:xlink="http://www.w3.org/1999/xlink" x="0px" y="0px"
	 viewBox="0 0 512 512" style="enable-background:new 0 0 512 512;" xml:space="preserve">
<rect x="10.557" y="47.505" style="fill:#30C9B0;" width="490.887" height="416.99"/>
<rect x="10.557" y="47.505" style="fill:#FF7D46;" width="229.608" height="416.99"/>
<g>
	<rect x="10.557" y="224.33" style="fill:#EFEFEF;" width="229.608" height="48.033"/>
	<rect x="10.557" y="272.363" style="fill:#EFEFEF;" width="229.608" height="48.033"/>
	<rect x="10.557" y="320.396" style="fill:#EFEFEF;" width="229.608" height="48.033"/>
	<rect x="10.557" y="368.429" style="fill:#EFEFEF;" width="229.608" height="48.033"/>
</g>
<rect x="10.557" y="416.462" style="fill:#45CCFF;" width="229.608" height="48.033"/>
<g>
	<path style="fill:#231F20;" d="M501.443,36.948H10.557C4.727,36.948,0,41.676,0,47.505v416.99c0,5.829,4.727,10.557,10.557,10.557
		h490.887c5.829,0,10.557-4.727,10.557-10.557V47.505C512,41.676,507.273,36.948,501.443,36.948z M21.113,234.887h208.495v26.92
		H21.113V234.887z M21.113,330.953h208.495v26.92H21.113V330.953z M21.113,282.92h208.495v26.92H21.113V282.92z M21.113,378.986
		h208.495v26.92H21.113V378.986z M229.608,58.062v155.711H21.113V58.062H229.608z M21.113,453.938v-26.92h208.495v26.92H21.113z
		 M490.887,453.938H250.722V58.062h240.165V453.938z"/>
	<path style="fill:#231F20;" d="M59.645,187.03h58.062c5.829,0,10.557-4.727,10.557-10.557c0-5.829-4.727-10.557-10.557-10.557
		H59.645c-5.829,0-10.557,4.727-10.557,10.557C49.089,182.303,53.816,187.03,59.645,187.03z"/>
	<path style="fill:#231F20;" d="M59.645,144.803h58.062c5.829,0,10.557-4.727,10.557-10.557c0-5.829-4.727-10.557-10.557-10.557
		H59.645c-5.829,0-10.557,4.727-10.557,10.557C49.089,140.076,53.816,144.803,59.645,144.803z"/>
	<path style="fill:#231F20;" d="M59.645,102.576h58.062c5.829,0,10.557-4.727,10.557-10.557s-4.727-10.557-10.557-10.557H59.645
		c-5.829,0-10.557,4.727-10.557,10.557S53.816,102.576,59.645,102.576z"/>
	<path style="fill:#231F20;" d="M152.808,187.03h1.056c5.829,0,10.557-4.727,10.557-10.557c0-5.829-4.727-10.557-10.557-10.557
		h-1.056c-5.829,0-10.557,4.727-10.557,10.557C142.252,182.303,146.979,187.03,152.808,187.03z"/>
</g>
<g>
</g>
<g>
</g>
<g>
</g>
<g>
</g>
<g>
</g>
<g>
</g>
<g>
</g>
<g>
</g>
<g>
</g>
<g>
</g>
<g>
</g>
<g>
</g>
<g>
</g>
<g>
</g>
<g>
</g>
</svg>
